# xmcd
#
# Track frame offsets:
#	150
#	15108
#	29258
#	41533
#	54083
#	65220
#	76788
#	90198
#	103748
#	115480
#	127233
#	138760
#	150023
#	163085
#	176730
#
# Disc length: 2545 seconds
#
# Revision: 3
# Processed by: cddbd v1.4PL0 Copyright (c) Steve Scherf et al.
# Submitted via: MusicWizard 6.0.2
#
DISCID=af09ef0f
DTITLE=Glen Campbell - The Very Best Of Glen Campbell
DYEAR=1987
DGENRE=Country
TTITLE0=Rhinestone Cowboy
TTITLE1=Wichita Lineman
TTITLE2=Galveston
TTITLE3=By The Time I Get To Phoenix
TTITLE4=Try A Little Kindness
TTITLE5=Hey Little One
TTITLE6=Where's The Playground Susie
TTITLE7=Gentle On My Mind
TTITLE8=Dreams Of The Everyday Housewife
TTITLE9=All I Have To Do Is Dream (With Bobbie Gentry)
TTITLE10=Dream Baby (How Long Must I Dream?)
TTITLE11=It's Only Make Believe
TTITLE12=Sunflower
TTITLE13=Southern Nights
TTITLE14=Country Boy (You Got Your Feet In L.A.)
EXTD=
EXTT0=
EXTT1=
EXTT2=
EXTT3=
EXTT4=
EXTT5=
EXTT6=
EXTT7=
EXTT8=
EXTT9=
EXTT10=
EXTT11=
EXTT12=
EXTT13=
EXTT14=
PLAYORDER=
